<?xml version="1.0" encoding="utf-8"?>
<!-- Generator: Adobe Illustrator 25.4.1, SVG Export Plug-In . SVG Version: 6.00 Build 0)  -->
<svg version="1.1" id="Layer_1" xmlns="http://www.w3.org/2000/svg" xmlns:xlink="http://www.w3.org/1999/xlink" x="0px" y="0px"
	 viewBox="0 0 936 576" style="enable-background:new 0 0 936 576;" xml:space="preserve">
<style type="text/css">
	.st0{fill:#FFFFFF;}
	.st1{clip-path:url(#SVGID_00000147932935422215755520000005685972134437342395_);}
	.st2{fill:#FFFFFF;stroke:#FFFFFF;stroke-width:1.07;stroke-linecap:round;stroke-linejoin:round;stroke-miterlimit:10;}
	.st3{clip-path:url(#SVGID_00000022525806369951564480000017124855309317185456_);}
	.st4{fill:none;stroke:#EBEBEB;stroke-width:0.53;stroke-linejoin:round;stroke-miterlimit:10;}
	.st5{fill:none;stroke:#EBEBEB;stroke-width:1.07;stroke-linejoin:round;stroke-miterlimit:10;}
	.st6{fill:none;stroke:#EEAD0E;stroke-width:2.13;stroke-linejoin:round;stroke-miterlimit:10;}
	.st7{fill:none;stroke:#6495ED;stroke-width:2.13;stroke-linejoin:round;stroke-miterlimit:10;}
	.st8{fill:none;stroke:#8B0A50;stroke-width:2.13;stroke-linejoin:round;stroke-miterlimit:10;}
	.st9{fill:none;stroke:#333333;stroke-width:1.07;stroke-linecap:round;stroke-linejoin:round;stroke-miterlimit:10;}
	.st10{clip-path:url(#SVGID_00000003797649986573941580000014194212007914574776_);}
	.st11{fill:none;}
	.st12{fill:#4D4D4D;}
	.st13{font-family:'ArialMT';}
	.st14{font-size:12px;}
	.st15{fill:none;stroke:#333333;stroke-width:1.07;stroke-linejoin:round;stroke-miterlimit:10;}
	.st16{font-size:18px;}
	.st17{fill:#FFFFFF;stroke:#231F20;stroke-miterlimit:10;}
	.st18{clip-path:url(#SVGID_00000003797649986573941580000014194212007914574776_);fill:#FFFFFF;}
	.st19{font-size:20px;}
	.st20{enable-background:new    ;}
	.st21{fill:#6495ED;}
	.st22{font-size:22.76px;}
	.st23{letter-spacing:8;}
	.st24{fill:#EEAD0E;}
	.st25{fill:#8B0A50;}
	.st26{font-family:'MyriadPro-Regular';}
</style>
<rect x="83.7" y="-1.2" class="st0" width="936" height="576"/>
<g>
	<defs>
		<rect id="SVGID_1_" x="83.7" y="-1.2" width="936" height="576"/>
	</defs>
	<clipPath id="SVGID_00000079458863505614789780000017465730768109575052_">
		<use xlink:href="#SVGID_1_"  style="overflow:visible;"/>
	</clipPath>
	<g style="clip-path:url(#SVGID_00000079458863505614789780000017465730768109575052_);">
		<rect x="83.7" y="-1.2" class="st2" width="936" height="576"/>
	</g>
</g>
<g>
	<defs>
		<rect id="SVGID_00000082346175452525487810000016935610188085360787_" x="121.2" y="4.3" width="806" height="538.8"/>
	</defs>
	<clipPath id="SVGID_00000147899952838281414030000011026001661640450972_">
		<use xlink:href="#SVGID_00000082346175452525487810000016935610188085360787_"  style="overflow:visible;"/>
	</clipPath>
	<g style="clip-path:url(#SVGID_00000147899952838281414030000011026001661640450972_);">
		<rect x="121.2" y="4.3" class="st0" width="806" height="538.8"/>
		<line class="st4" x1="121.2" y1="486.5" x2="927.2" y2="486.5"/>
		<line class="st4" x1="121.2" y1="358.2" x2="927.2" y2="358.2"/>
		<line class="st4" x1="121.2" y1="229.8" x2="927.2" y2="229.8"/>
		<line class="st4" x1="121.2" y1="101.4" x2="927.2" y2="101.4"/>
		<line class="st4" x1="249.4" y1="543.1" x2="249.4" y2="4.3"/>
		<line class="st4" x1="432.6" y1="543.1" x2="432.6" y2="4.3"/>
		<line class="st4" x1="615.8" y1="543.1" x2="615.8" y2="4.3"/>
		<line class="st4" x1="798.9" y1="543.1" x2="798.9" y2="4.3"/>
		<line class="st5" x1="121.2" y1="422.4" x2="927.2" y2="422.4"/>
		<line class="st5" x1="121.2" y1="294" x2="927.2" y2="294"/>
		<line class="st5" x1="121.2" y1="165.6" x2="927.2" y2="165.6"/>
		<line class="st5" x1="121.2" y1="37.2" x2="927.2" y2="37.2"/>
		<line class="st5" x1="157.8" y1="543.1" x2="157.8" y2="4.3"/>
		<line class="st5" x1="341" y1="543.1" x2="341" y2="4.3"/>
		<line class="st5" x1="524.2" y1="543.1" x2="524.2" y2="4.3"/>
		<line class="st5" x1="707.3" y1="543.1" x2="707.3" y2="4.3"/>
		<line class="st5" x1="890.5" y1="543.1" x2="890.5" y2="4.3"/>
		<polyline class="st6" points="157.8,518.6 167.1,494.7 176.4,471.7 185.6,449.7 194.9,428.5 204.2,408.3 213.5,389 222.7,370.7 
			232,353.2 241.3,336.7 250.6,321.2 259.8,306.5 269.1,292.8 278.4,280 287.7,268.1 296.9,257.3 306.2,247.5 315.5,238.6 
			324.8,230.5 334,223.2 343.3,216.7 352.6,210.8 361.9,205.5 371.1,200.8 380.4,196.6 389.7,192.7 399,189.3 408.2,186.1 
			417.5,183.2 426.8,180.5 436.1,177.9 445.3,175.4 454.6,172.8 463.9,170.2 473.2,167.5 482.4,164.6 491.7,161.4 501,158 
			510.3,154.1 519.5,149.9 528.8,145.2 538.1,140.4 547.4,135.5 556.6,130.6 565.9,125.7 575.2,120.8 584.5,116 593.7,111.3 
			603,106.7 612.3,102.2 621.6,98 630.8,93.9 640.1,90.1 649.4,86.5 658.7,83.1 667.9,79.8 677.2,76.5 686.5,73.3 695.8,70.3 
			705,67.3 714.3,64.4 723.6,61.6 732.8,58.9 742.1,56.3 751.4,53.8 760.7,51.4 769.9,49.1 779.2,46.9 788.5,44.8 797.8,42.8 
			807,40.9 816.3,39.1 825.6,37.4 834.9,35.9 844.1,34.4 853.4,33.1 862.7,31.8 872,30.7 881.2,29.7 890.5,28.8 		"/>
		<polyline class="st7" points="157.8,468 167.1,436.9 176.4,407.3 185.6,379.1 194.9,352.4 204.2,326.9 213.5,302.8 222.7,280 
			232,258.4 241.3,238.1 250.6,218.8 259.8,200.7 269.1,183.7 278.4,167.8 287.7,153.4 296.9,141.9 306.2,132.8 315.5,125.9 
			324.8,121 334,117.7 343.3,115.7 352.6,114.9 361.9,114.9 371.1,115.4 380.4,116.2 389.7,116.9 399,117.4 408.2,117.5 
			417.5,117.7 426.8,118 436.1,118.5 445.3,119 454.6,119.5 463.9,120.1 473.2,120.6 482.4,121 491.7,121.3 501,121.5 510.3,121.4 
			519.5,121.2 528.8,120.7 538.1,120.1 547.4,119.5 556.6,118.8 565.9,118.1 575.2,117.3 584.5,116.4 593.7,115.4 603,114.4 
			612.3,113.2 621.6,112 630.8,110.6 640.1,109.2 649.4,107.6 658.7,105.9 667.9,104.1 677.2,102.3 686.5,100.4 695.8,98.4 
			705,96.4 714.3,94.2 723.6,92 732.8,89.7 742.1,87.2 751.4,84.7 760.7,82.1 769.9,79.4 779.2,76.6 788.5,73.7 797.8,70.7 
			807,67.6 816.3,64.5 825.6,61.2 834.9,57.9 844.1,54.5 853.4,50.9 862.7,47.3 872,43.6 881.2,39.8 890.5,36 		"/>
		<polyline class="st8" points="157.8,478.5 167.1,450.2 176.4,422.9 185.6,396.9 194.9,372 204.2,348.2 213.5,325.7 222.7,304.2 
			232,284 241.3,264.8 250.6,246.9 259.8,230.1 269.1,214.4 278.4,200 287.7,186.7 296.9,174.5 306.2,163.5 315.5,153.6 
			324.8,144.7 334,136.7 343.3,129.5 352.6,123.2 361.9,117.6 371.1,112.7 380.4,108.4 389.7,104.6 399,101.4 408.2,98.5 
			417.5,96.1 426.8,93.9 436.1,92 445.3,90.2 454.6,88.5 463.9,86.9 473.2,85.3 482.4,83.6 491.7,81.7 501,79.6 510.3,77.3 
			519.5,74.6 528.8,71.6 538.1,68.6 547.4,65.8 556.6,63 565.9,60.4 575.2,58 584.5,55.6 593.7,53.4 603,51.2 612.3,49.2 
			621.6,47.3 630.8,45.5 640.1,43.8 649.4,42.3 658.7,40.8 667.9,39.5 677.2,38.2 686.5,37.1 695.8,36.1 705,35.2 714.3,34.3 
			723.6,33.6 732.8,33 742.1,32.5 751.4,32.1 760.7,31.8 769.9,31.6 779.2,31.6 788.5,31.6 797.8,31.7 807,32 816.3,32.3 
			825.6,32.8 834.9,33.3 844.1,34 853.4,34.8 862.7,35.7 872,36.7 881.2,37.8 890.5,39 		"/>
		<rect x="121.2" y="4.3" class="st9" width="806" height="538.8"/>
	</g>
</g>
<g>
	<defs>
		<rect id="SVGID_00000078039365666533392150000006673698998053885092_" x="83.7" y="-1.2" width="936" height="576"/>
	</defs>
	<clipPath id="SVGID_00000057848947404386562240000012944710221618303649_">
		<use xlink:href="#SVGID_00000078039365666533392150000006673698998053885092_"  style="overflow:visible;"/>
	</clipPath>
	<g style="clip-path:url(#SVGID_00000057848947404386562240000012944710221618303649_);">
		<rect x="92.7" y="418" class="st11" width="25.2" height="10.4"/>
		<text transform="matrix(1 0 0 1 97.0283 428.3071)" class="st12 st13 st14">0.4</text>
		<rect x="92.7" y="289.6" class="st11" width="25.2" height="10.4"/>
		<text transform="matrix(1 0 0 1 97.0283 299.9072)" class="st12 st13 st14">0.6</text>
		<rect x="92.7" y="161.2" class="st11" width="25.2" height="10.4"/>
		<text transform="matrix(1 0 0 1 97.0283 171.5176)" class="st12 st13 st14">0.8</text>
		<rect x="92.7" y="32.8" class="st11" width="25.2" height="10.4"/>
		<text transform="matrix(1 0 0 1 97.0283 43.1172)" class="st12 st13 st14">1.0</text>
		<line class="st15" x1="118.4" y1="422.4" x2="121.2" y2="422.4"/>
		<line class="st15" x1="118.4" y1="294" x2="121.2" y2="294"/>
		<line class="st15" x1="118.4" y1="165.6" x2="121.2" y2="165.6"/>
		<line class="st15" x1="118.4" y1="37.2" x2="121.2" y2="37.2"/>
		<line class="st15" x1="157.8" y1="545.9" x2="157.8" y2="543.1"/>
		<line class="st15" x1="341" y1="545.9" x2="341" y2="543.1"/>
		<line class="st15" x1="524.2" y1="545.9" x2="524.2" y2="543.1"/>
		<line class="st15" x1="707.3" y1="545.9" x2="707.3" y2="543.1"/>
		<line class="st15" x1="890.5" y1="545.9" x2="890.5" y2="543.1"/>
		<rect x="149.2" y="546.9" class="st11" width="19.6" height="10.4"/>
		<text transform="matrix(1 0 0 1 150.6987 557.2271)" class="st12 st13 st14">0.0</text>
		<rect x="332.4" y="546.9" class="st11" width="19.6" height="10.4"/>
		<text transform="matrix(1 0 0 1 333.8789 557.2271)" class="st12 st13 st14">0.2</text>
		<rect x="515.6" y="546.9" class="st11" width="19.6" height="10.4"/>
		<text transform="matrix(1 0 0 1 517.0488 557.2271)" class="st12 st13 st14">0.5</text>
		<rect x="698.8" y="546.9" class="st11" width="19.6" height="10.4"/>
		<text transform="matrix(1 0 0 1 700.2285 557.2271)" class="st12 st13 st14">0.7</text>
		<rect x="882" y="546.9" class="st11" width="19.6" height="10.4"/>
		<text transform="matrix(1 0 0 1 883.4092 557.2271)" class="st12 st13 st14">1.0</text>
		<rect x="473.8" y="554.3" class="st11" width="103.2" height="23.7"/>
		<text transform="matrix(1 0 0 1 491.3757 569.7466)" class="st13 st16">Specifity</text>
		<rect x="636.9" y="138.2" class="st17" width="256.2" height="216.1"/>
		<path class="st0" d="M309.3,437.4h6.9c2.9,0,5.2,2.3,5.2,5.2v6.9c0,2.9-2.3,5.2-5.2,5.2h-6.9c-2.9,0-5.2-2.3-5.2-5.2v-6.9
			C304.1,439.7,306.4,437.4,309.3,437.4z"/>
		<line class="st6" x1="657.1" y1="293" x2="704.3" y2="293"/>
		<path class="st0" d="M948.8,273h6.9c2.9,0,5.2,2.3,5.2,5.2v6.9c0,2.9-2.3,5.2-5.2,5.2h-6.9c-2.9,0-5.2-2.3-5.2-5.2v-6.9
			C943.6,275.3,945.9,273,948.8,273z"/>
		<line class="st7" x1="657.1" y1="226.5" x2="704.3" y2="226.5"/>
		<line class="st8" x1="704.3" y1="165.4" x2="657.1" y2="165.4"/>
	</g>
	<path style="clip-path:url(#SVGID_00000057848947404386562240000012944710221618303649_);fill:#FFFFFF;" d="M948.8,290.3h6.9
		c2.9,0,5.2,2.3,5.2,5.2v6.9c0,2.9-2.3,5.2-5.2,5.2h-6.9c-2.9,0-5.2-2.3-5.2-5.2v-6.9C943.6,292.6,945.9,290.3,948.8,290.3z"/>
</g>
<rect x="72.5" y="205.1" class="st11" width="42.5" height="137.3"/>
<text transform="matrix(6.123234e-17 -1 1 6.123234e-17 89.7017 318.7461)" class="st13 st19">Sensitivity</text>
<rect x="651.9" y="246.2" class="st11" width="161.2" height="26.9"/>
<text transform="matrix(1 0 0 1 651.8923 265.6852)" class="st20"><tspan x="0" y="0" class="st21 st13 st22">AUC</tspan><tspan x="48.1" y="0" class="st21 st13 st22 st23"> </tspan><tspan x="63.2" y="0" class="st21 st13 st22">=</tspan><tspan x="76.5" y="0" class="st21 st13 st22 st23"> </tspan><tspan x="91.6" y="0" class="st21 st13 st22">0.8750</tspan></text>
<rect x="651.9" y="320.2" class="st11" width="161.2" height="26.9"/>
<text transform="matrix(1 0 0 1 651.8923 339.7154)" class="st20"><tspan x="0" y="0" class="st24 st13 st22">AUC</tspan><tspan x="48.1" y="0" class="st24 st13 st22 st23"> </tspan><tspan x="63.2" y="0" class="st24 st13 st22">=</tspan><tspan x="76.5" y="0" class="st24 st13 st22 st23"> </tspan><tspan x="91.6" y="0" class="st24 st13 st22">0.8125</tspan></text>
<rect x="651.9" y="181.8" class="st11" width="161.2" height="26.9"/>
<text transform="matrix(1 0 0 1 651.8923 201.3787)" class="st20"><tspan x="0" y="0" class="st25 st13 st22">AUC</tspan><tspan x="48.1" y="0" class="st25 st13 st22 st23"> </tspan><tspan x="63.2" y="0" class="st25 st13 st22">=</tspan><tspan x="76.5" y="0" class="st25 st13 st22 st23"> </tspan><tspan x="91.6" y="0" class="st25 st13 st22">0.8958</tspan></text>
<text transform="matrix(1 0 0 1 713.3727 292.8347)"><tspan x="0" y="0" class="st26 st16">Relative Abundance</tspan><tspan x="0" y="21.6" class="st26 st16">(Genus)</tspan></text>
<text transform="matrix(1 0 0 1 712.0043 233.7641)" class="st26 st16">Expression Signatures</text>
<text transform="matrix(1 0 0 1 711.3565 170.5511)" class="st26 st16">Combined</text>
</svg>
